<?xml version="1.0" standalone="no"?>
<!DOCTYPE svg PUBLIC "-//W3C//DTD SVG 20010904//EN"
 "http://www.w3.org/TR/2001/REC-SVG-20010904/DTD/svg10.dtd">
<svg version="1.0" xmlns="http://www.w3.org/2000/svg"
 width="174.000000pt" height="115.000000pt" viewBox="0 0 174.000000 115.000000"
 preserveAspectRatio="xMidYMid meet">

<g transform="translate(0.000000,115.000000) scale(0.100000,-0.100000)"
fill="#000000" stroke="none">
<path d="M854 1060 c-38 -27 -73 -50 -77 -50 -5 0 -7 -9 -4 -20 3 -11 -2 -25
-11 -32 -14 -11 -15 -10 -8 7 6 17 4 17 -18 -4 -34 -32 -33 -51 2 -50 17 1 21
3 9 6 -22 6 -18 25 5 29 9 1 29 14 45 29 l28 27 -25 -7 c-19 -5 -21 -4 -10 4
8 6 24 8 34 5 15 -5 18 -3 13 10 -4 10 -1 16 8 16 7 0 21 7 29 16 23 22 41 8
23 -19 -17 -27 -28 -69 -16 -61 5 3 9 12 9 20 0 8 5 14 10 14 6 0 10 -9 10
-19 0 -11 3 -27 6 -36 4 -10 2 -15 -7 -13 -8 2 -13 -3 -11 -10 2 -10 -2 -10
-17 0 -11 7 -19 16 -18 21 1 5 -4 12 -10 14 -7 3 -13 -1 -13 -7 0 -15 26 -41
34 -33 3 4 6 -3 6 -15 0 -16 -6 -22 -22 -22 -21 -1 -22 -1 -5 -11 15 -9 22 -7
34 10 17 25 37 18 30 -10 -3 -11 -1 -19 4 -19 5 0 7 -11 4 -25 -3 -14 -8 -37
-11 -52 -4 -22 -3 -25 9 -14 10 8 17 9 22 1 3 -5 3 -10 0 -10 -3 0 3 -10 15
-22 20 -22 23 -33 21 -78 -1 -14 3 -32 9 -40 9 -13 11 -13 21 0 8 11 9 -3 5
-52 -3 -40 -1 -70 5 -74 14 -9 41 17 34 33 -9 24 6 65 22 59 11 -5 13 2 8 33
-5 33 -3 39 12 37 10 0 24 -7 31 -13 12 -12 35 -17 55 -14 4 1 7 -4 6 -11 -3
-25 1 -38 12 -38 5 0 7 5 4 10 -6 9 -2 12 28 14 6 1 15 8 19 16 4 10 7 6 7
-11 1 -18 8 -28 21 -32 17 -4 19 -1 14 21 -4 15 -11 33 -17 40 -6 8 -5 17 3
27 11 13 10 14 -4 9 -10 -4 -16 -1 -16 8 0 8 -9 23 -20 33 -11 10 -20 23 -20
28 0 5 -6 15 -14 21 -25 19 -23 49 3 62 13 7 30 10 37 7 23 -8 16 -33 -8 -33
-17 0 -19 -3 -10 -9 8 -4 12 -11 10 -14 -1 -3 8 -18 22 -34 13 -15 23 -29 22
-30 -1 -2 -2 -9 -1 -15 0 -7 5 3 11 22 8 30 11 32 20 17 7 -14 13 -15 23 -7
15 12 12 17 -45 77 -14 14 -19 23 -12 19 6 -4 12 -4 12 1 0 14 -47 31 -62 22
-33 -22 -63 -9 -101 41 -20 27 -37 52 -37 56 0 4 -7 12 -15 18 -8 6 -28 36
-44 66 -19 37 -40 61 -62 72 -19 9 -37 17 -40 18 -4 0 -37 -22 -75 -50z m103
-282 c-3 -8 -6 -5 -6 6 -1 11 2 17 5 13 3 -3 4 -12 1 -19z m163 -32 c0 -5 -7
-3 -15 4 -8 7 -12 17 -9 22 7 10 24 -9 24 -26z m-40 -68 c0 -10 -7 -18 -15
-18 -8 0 -15 8 -15 18 0 10 7 19 15 19 8 0 15 -9 15 -19z m104 -3 c3 -8 12
-15 21 -15 8 0 15 -4 15 -10 0 -5 -4 -10 -10 -10 -12 0 -50 32 -50 42 0 14 18
9 24 -7z"/>
<path d="M437 927 c-32 -27 -34 -37 -8 -32 20 4 24 -24 6 -37 -6 -5 -5 -8 3
-8 6 0 12 -7 12 -15 0 -8 5 -15 10 -15 7 0 7 -6 0 -19 -5 -11 -7 -27 -3 -37 5
-13 3 -16 -10 -11 -9 3 -17 2 -17 -2 0 -5 5 -11 11 -13 7 -2 7 -12 -1 -32 -12
-32 -10 -36 16 -40 10 -2 19 -8 20 -15 2 -7 0 -7 -3 -1 -3 7 -10 7 -21 -2 -12
-10 -14 -10 -8 0 4 6 2 12 -3 12 -14 0 -14 -12 -1 -28 6 -6 8 -10 5 -8 -7 4
-79 -64 -73 -70 3 -2 17 8 31 22 26 26 32 23 28 -17 -1 -8 13 -22 31 -30 17
-8 34 -20 36 -26 6 -19 -63 -16 -83 3 -12 13 -18 14 -31 4 -8 -7 -17 -10 -21
-6 -3 3 -1 6 5 6 7 0 12 5 12 10 0 6 -15 10 -34 10 -30 0 -135 20 -190 37 -15
4 -16 7 -5 14 7 4 10 11 6 15 -4 4 -13 2 -19 -4 -7 -7 -16 -12 -21 -12 -5 0 1
9 14 20 13 10 19 19 13 20 -6 0 -18 -8 -26 -17 -19 -22 -7 -63 19 -63 25 0
134 -32 128 -38 -2 -3 14 -15 38 -26 66 -34 117 -67 117 -77 0 -14 32 -11 60
6 14 8 40 22 59 31 25 11 31 18 21 24 -7 5 -21 3 -30 -2 -19 -12 -70 -3 -70
13 0 6 9 8 20 4 11 -4 20 -2 20 4 0 6 7 11 15 11 8 0 12 6 9 13 -2 7 4 13 16
14 22 2 27 -12 8 -20 -7 -3 2 -6 20 -6 30 -1 32 0 18 15 -19 19 -20 25 -3 22
7 -2 12 7 12 22 0 19 4 24 20 22 11 -2 22 -8 23 -13 2 -5 12 -9 23 -9 10 0 19
-6 19 -13 0 -8 6 -14 14 -14 23 0 -3 45 -30 51 -13 4 -24 10 -24 15 0 12 -36
51 -47 51 -9 0 -41 33 -56 57 -15 23 11 22 37 -2 32 -30 46 -32 39 -6 -7 25
23 35 39 12 7 -10 23 -21 36 -25 26 -9 57 -50 47 -66 -3 -5 -1 -10 4 -10 6 0
11 5 11 12 0 6 3 8 6 5 4 -4 3 -12 -2 -19 -5 -7 -9 -20 -8 -28 1 -8 2 -22 3
-30 0 -9 14 -21 30 -27 25 -9 29 -8 24 5 -4 10 -2 13 6 8 6 -4 11 -4 10 1 -4
22 2 34 14 27 6 -4 2 4 -10 18 -13 13 -23 27 -23 30 0 9 -39 54 -77 92 -18 17
-33 35 -33 39 0 5 -10 17 -22 27 -21 17 -21 18 -5 35 20 20 15 34 -6 17 -11
-9 -22 1 -52 50 -55 86 -116 110 -168 65z m79 -117 c-3 -26 -2 -39 4 -35 6 3
10 -1 10 -9 0 -9 -4 -16 -9 -16 -5 0 -7 -10 -4 -22 4 -19 3 -20 -6 -8 -14 20
-14 130 0 130 7 0 9 -14 5 -40z m100 -89 c-7 -11 -46 -16 -46 -5 0 3 5 15 11
26 10 18 13 19 26 5 9 -8 12 -20 9 -26z m-16 -122 c0 -5 -4 -9 -10 -9 -5 0
-10 7 -10 16 0 8 5 12 10 9 6 -3 10 -10 10 -16z m-105 -19 c3 -5 1 -10 -4 -10
-6 0 -11 5 -11 10 0 6 2 10 4 10 3 0 8 -4 11 -10z m278 -41 c-9 -9 -12 -7 -10
9 1 14 5 18 11 12 7 -7 6 -14 -1 -21z m-206 5 c-3 -3 -12 -4 -19 -1 -8 3 -5 6
6 6 11 1 17 -2 13 -5z m-221 -45 c3 -5 -6 -9 -20 -9 -16 0 -26 6 -26 14 0 15
36 11 46 -5z m51 -31 c26 -24 29 -38 11 -38 -20 0 -35 13 -42 38 -9 28 1 28
31 0z"/>
<path d="M359 870 c-19 -16 -31 -29 -28 -30 3 0 16 9 28 19 13 11 28 22 34 24
7 2 9 7 6 10 -3 4 -21 -7 -40 -23z"/>
<path d="M745 891 c-3 -6 -17 -11 -29 -11 -17 0 -25 -7 -28 -25 -6 -30 18 -35
27 -5 3 11 13 20 20 20 15 0 30 18 22 26 -3 3 -8 1 -12 -5z"/>
<path d="M770 820 c-8 -5 -10 -10 -5 -10 6 0 17 5 25 10 8 5 11 10 5 10 -5 0
-17 -5 -25 -10z"/>
<path d="M840 811 c0 -5 9 -7 20 -4 11 3 20 7 20 9 0 2 -9 4 -20 4 -11 0 -20
-4 -20 -9z"/>
<path d="M1415 770 c-3 -11 -11 -20 -16 -20 -5 0 -9 -4 -9 -10 0 -5 7 -7 15
-4 13 5 15 -7 15 -74 0 -69 3 -83 20 -95 11 -8 17 -17 13 -20 -3 -4 -1 -7 6
-7 7 0 11 13 9 35 -1 19 -6 35 -11 35 -4 0 -5 6 -1 12 17 27 15 95 -2 112 -9
9 -14 20 -11 23 12 12 38 -8 48 -37 6 -16 15 -30 20 -30 5 0 9 -6 9 -14 0 -8
4 -16 10 -18 5 -1 11 -24 12 -50 2 -25 5 -45 6 -43 7 7 42 -30 42 -43 0 -12 3
-12 15 -2 8 7 12 17 8 23 -4 6 -1 7 7 2 8 -5 11 -3 8 6 -3 8 -11 13 -17 12 -6
-2 -11 4 -11 13 0 8 5 12 10 9 14 -9 12 17 -4 37 -15 21 -27 14 -19 -10 8 -22
-1 -13 -17 17 -9 18 -9 22 0 16 8 -5 11 -3 8 6 -3 8 -10 14 -16 14 -6 0 -17 6
-23 13 -10 10 -10 12 0 12 21 0 3 52 -27 77 -35 29 -88 31 -97 3z"/>
<path d="M253 748 c-13 -6 -23 -16 -23 -22 0 -6 -8 -19 -17 -28 -25 -24 -38
-40 -46 -60 -10 -28 8 -21 21 7 6 14 18 25 27 25 8 0 15 9 15 19 0 11 9 23 20
26 11 3 20 12 20 20 0 7 6 16 13 18 6 3 8 5 2 6 -5 0 -20 -5 -32 -11z"/>
<path d="M920 716 c-28 -13 -38 -36 -15 -36 8 0 15 4 15 8 0 5 10 13 22 19 12
5 18 12 12 15 -5 3 -20 0 -34 -6z"/>
<path d="M855 700 c-3 -5 -2 -10 4 -10 5 0 13 5 16 10 3 6 2 10 -4 10 -5 0
-13 -4 -16 -10z"/>
<path d="M862 655 c-11 -12 -10 -15 3 -15 8 0 15 7 15 15 0 18 -2 18 -18 0z"/>
<path d="M370 649 c0 -5 5 -7 10 -4 6 3 10 8 10 11 0 2 -4 4 -10 4 -5 0 -10
-5 -10 -11z"/>
<path d="M957 589 c-4 -16 -3 -18 9 -8 16 13 19 29 5 29 -5 0 -11 -9 -14 -21z"/>
<path d="M1120 560 c0 -5 5 -10 10 -10 6 0 10 5 10 10 0 6 -4 10 -10 10 -5 0
-10 -4 -10 -10z"/>
<path d="M1161 527 c17 -32 19 -33 19 -10 0 12 -7 23 -15 27 -13 5 -14 2 -4
-17z"/>
<path d="M1220 536 c0 -17 16 -30 23 -19 3 5 -1 14 -9 21 -12 10 -14 10 -14
-2z"/>
<path d="M1643 543 c-7 -3 -13 -11 -13 -19 0 -9 -4 -12 -10 -9 -5 3 -10 0 -10
-8 0 -10 -20 -16 -71 -21 -39 -3 -74 -4 -79 -1 -5 3 -76 6 -159 6 -119 0 -157
-4 -182 -16 -39 -21 -33 -29 10 -14 21 8 61 9 114 4 213 -19 335 -20 370 -4
43 20 71 96 30 82z"/>
<path d="M170 481 c19 -17 52 -35 72 -41 20 -6 51 -22 68 -37 23 -19 34 -23
43 -14 8 8 3 18 -23 41 -19 16 -43 29 -52 30 -10 0 -34 9 -55 19 -21 11 -49
22 -63 26 -23 6 -22 4 10 -24z"/>
<path d="M1045 440 c-4 -6 10 -10 34 -10 23 0 41 3 41 8 0 11 -68 13 -75 2z"/>
<path d="M1029 410 c-26 -4 -56 -13 -68 -19 -22 -12 -51 -60 -51 -86 0 -8 -5
-15 -11 -15 -6 0 -9 -7 -5 -15 3 -9 -3 -20 -14 -27 -27 -17 -25 -29 2 -19 17
6 28 2 50 -21 29 -30 36 -48 17 -48 -5 0 -8 4 -5 9 3 5 -5 8 -18 7 -17 -1 -22
-4 -15 -13 7 -8 5 -10 -10 -6 -12 3 -21 8 -21 12 0 10 -59 11 -65 1 -3 -5 -13
-6 -22 -3 -12 5 -14 3 -8 -7 5 -9 4 -11 -3 -6 -7 4 -12 16 -12 27 0 15 7 19
39 19 l39 0 -3 53 c-2 51 -2 51 11 22 7 -16 13 -23 14 -15 0 8 -10 30 -21 49
-19 32 -20 36 -5 47 15 11 22 34 10 34 -3 0 -12 -7 -20 -15 -10 -10 -24 -13
-42 -8 -15 3 -32 6 -39 6 -7 0 -13 7 -13 15 0 9 -6 12 -16 8 -9 -3 -38 -6 -65
-6 -44 0 -53 -4 -94 -43 -41 -39 -45 -48 -45 -90 0 -40 4 -49 27 -64 15 -10
45 -18 68 -18 34 0 40 -3 43 -22 3 -20 -1 -23 -30 -23 -19 0 -39 5 -45 11 -8
8 -13 7 -18 -2 -5 -7 0 -18 11 -27 15 -11 43 -13 134 -9 169 8 302 33 390 74
41 20 104 46 140 59 35 14 106 47 157 74 52 28 106 50 122 50 16 0 39 9 52 19
l24 20 -25 -5 c-82 -18 -167 -50 -210 -80 -49 -33 -77 -44 -65 -24 4 6 10 8
15 5 4 -3 10 1 13 9 4 10 0 12 -14 9 -18 -5 -24 -16 -20 -36 1 -5 -4 -7 -11
-5 -7 3 -24 -1 -37 -8 -14 -7 -28 -11 -32 -9 -3 3 -10 34 -14 69 -3 36 -12 70
-19 75 -18 16 -93 21 -147 11z m-46 -46 c12 -4 10 -10 -10 -30 -30 -30 -37
-27 -24 10 11 28 12 29 34 20z m185 -6 c15 -15 16 -58 2 -58 -5 0 -10 11 -10
25 0 13 -8 29 -17 34 -15 9 -15 10 -2 11 8 0 20 -5 27 -12z m-566 -31 c-21
-22 -32 -64 -14 -53 4 2 17 -8 27 -24 11 -16 27 -31 35 -34 10 -2 8 -4 -5 -5
-32 -2 -64 27 -71 63 -7 39 9 76 33 76 14 0 13 -4 -5 -23z m501 3 c3 -11 4
-20 2 -20 -2 0 -10 -3 -19 -6 -11 -4 -16 -1 -16 10 0 11 -9 16 -30 16 -16 0
-30 5 -30 10 0 6 20 10 44 10 35 0 45 -4 49 -20z m-338 -10 c14 -5 25 -14 25
-20 0 -15 -21 -12 -44 7 -12 10 -15 11 -8 3 6 -8 12 -21 12 -29 0 -10 -6 -6
-13 9 -8 14 -19 24 -25 23 -6 -2 -26 4 -44 13 l-33 15 53 -6 c29 -3 64 -10 77
-15z m-89 -35 c-8 -8 -25 -15 -38 -14 -21 1 -21 2 7 14 40 18 50 18 31 0z
m374 -80 c-5 -6 -8 -15 -5 -19 3 -3 -2 0 -11 8 -19 16 -10 38 12 29 10 -4 12
-9 4 -18z m-50 -29 c-7 -7 -13 -7 -20 0 -6 6 -3 10 10 10 13 0 16 -4 10 -10z
m-130 -27 c0 -15 -38 -29 -70 -25 -36 4 -53 16 -23 16 11 0 26 6 32 14 12 14
61 10 61 -5z"/>
</g>
</svg>
