<?xml version="1.0" standalone="no"?>
<!DOCTYPE svg PUBLIC "-//W3C//DTD SVG 20010904//EN"
 "http://www.w3.org/TR/2001/REC-SVG-20010904/DTD/svg10.dtd">
<svg version="1.0" xmlns="http://www.w3.org/2000/svg"
 width="174.000000pt" height="115.000000pt" viewBox="0 0 174.000000 115.000000"
 preserveAspectRatio="xMidYMid meet">

<g transform="translate(0.000000,115.000000) scale(0.100000,-0.100000)"
fill="#000000" stroke="none">
<path d="M854 1060 c-38 -27 -73 -50 -77 -50 -5 0 -7 -9 -4 -20 3 -11 -2 -25
-11 -32 -14 -11 -15 -10 -9 6 13 34 -20 -2 -70 -76 -25 -37 -47 -68 -49 -68
-2 0 -18 23 -36 51 -47 77 -112 99 -161 56 -32 -27 -34 -37 -8 -32 17 3 19 0
11 -20 -5 -12 -6 -25 -4 -28 3 -3 -25 -34 -61 -70 -39 -38 -63 -67 -56 -71 12
-8 117 72 126 97 3 9 11 17 16 17 6 0 6 -7 -1 -19 -5 -11 -7 -27 -3 -37 5 -14
3 -16 -11 -11 -13 5 -16 3 -12 -11 4 -12 -4 -22 -27 -33 -22 -11 -33 -24 -35
-42 -3 -24 -2 -25 22 -14 14 7 26 19 26 27 0 12 2 12 9 2 4 -7 16 -15 26 -16
11 -2 20 -8 21 -15 2 -8 1 -8 -3 0 -3 7 -32 -17 -69 -57 l-64 -68 -54 11 c-30
6 -73 24 -96 39 -31 21 -44 24 -52 16 -7 -7 -16 -12 -21 -12 -5 0 1 9 14 20
13 10 19 19 13 20 -6 0 -18 -8 -26 -17 -25 -28 -7 -59 37 -66 36 -6 75 -31 75
-48 0 -5 -19 -2 -41 6 -57 20 -58 19 -19 -14 19 -16 55 -37 80 -47 25 -9 55
-26 68 -37 17 -16 25 -18 34 -9 10 10 6 18 -17 38 -17 13 -40 29 -52 34 -23
10 -32 30 -13 30 21 0 150 -78 150 -91 0 -14 32 -11 60 6 14 8 40 22 59 31 26
12 31 18 20 24 -8 6 -18 5 -23 0 -11 -11 -56 -14 -56 -4 0 9 28 34 39 34 6 0
8 6 5 13 -2 7 4 13 16 14 22 2 27 -12 8 -20 -7 -3 2 -6 20 -6 30 -1 32 0 18
15 -19 19 -20 25 -3 22 7 -2 12 7 12 22 0 19 4 24 20 22 11 -2 22 -8 23 -13 2
-5 12 -9 23 -9 10 0 19 -6 19 -13 0 -8 6 -14 14 -14 23 0 -3 45 -30 51 -13 4
-24 10 -24 15 0 12 -36 51 -47 51 -9 0 -41 33 -56 57 -15 23 11 22 37 -2 32
-30 46 -32 39 -6 -7 25 23 35 39 12 7 -10 23 -21 36 -25 26 -9 57 -50 47 -66
-3 -5 -1 -10 4 -10 6 0 11 5 11 12 0 6 3 8 6 5 4 -4 3 -12 -2 -19 -5 -7 -9
-20 -8 -28 1 -8 2 -22 3 -30 0 -9 14 -21 30 -27 25 -9 29 -8 24 5 -4 8 -2 13
3 9 6 -3 11 4 12 16 3 37 -28 86 -95 151 -18 17 -33 35 -33 40 0 5 -7 14 -15
20 -13 9 -14 17 -4 44 6 17 17 32 24 32 8 0 16 9 20 19 3 10 15 21 25 24 11 3
20 11 20 18 0 10 -3 10 -12 1 -7 -7 -17 -12 -22 -12 -6 1 -1 9 11 19 19 16 20
20 7 25 -8 3 -12 10 -9 16 4 6 10 8 15 5 4 -2 23 9 41 26 32 28 32 30 9 24
-19 -5 -21 -4 -10 4 8 6 24 8 34 5 15 -5 18 -3 13 10 -4 10 -1 16 8 16 7 0 21
7 29 16 23 22 41 8 23 -19 -17 -27 -28 -69 -16 -61 5 3 9 12 9 20 0 8 5 14 10
14 6 0 10 -9 10 -19 0 -11 3 -27 6 -36 4 -10 2 -15 -7 -13 -8 2 -13 -3 -11
-10 2 -10 -2 -10 -17 0 -11 7 -19 16 -18 21 1 5 -4 12 -10 14 -7 3 -13 -1 -13
-7 0 -15 26 -41 34 -33 3 4 6 -3 6 -15 0 -16 -6 -22 -22 -22 -21 -1 -22 -1 -5
-11 15 -9 22 -7 34 10 17 25 37 18 30 -10 -3 -11 -1 -19 4 -19 5 0 7 -11 4
-25 -3 -14 -8 -37 -11 -52 -4 -22 -3 -25 9 -14 10 8 17 9 22 1 3 -5 3 -10 0
-10 -3 0 3 -10 15 -22 20 -22 23 -33 21 -78 -2 -33 16 -60 27 -43 5 8 8 -5 7
-29 -1 -44 -27 -73 -70 -80 -27 -4 -44 -20 -38 -36 3 -7 -14 -29 -37 -50 -37
-33 -44 -45 -50 -89 -7 -61 6 -74 85 -83 43 -4 50 -8 53 -29 4 -23 2 -24 -47
-18 -29 3 -49 2 -47 -2 3 -5 -33 -7 -79 -5 -69 3 -85 1 -85 -10 0 -8 -9 -16
-20 -18 -32 -5 -29 -22 5 -30 18 -4 8 -5 -25 -2 -30 3 -59 11 -65 17 -5 7 -27
23 -47 35 -20 13 -42 35 -49 50 -14 31 -77 68 -92 53 -6 -6 0 -15 17 -26 14
-9 35 -32 46 -50 20 -32 94 -83 134 -91 10 -2 76 -6 146 -10 91 -5 137 -3 165
6 21 7 61 16 89 19 30 4 50 12 49 18 -2 7 22 17 55 24 31 6 68 19 82 28 14 8
41 24 60 34 19 11 42 26 51 33 31 27 181 94 210 94 36 0 72 17 64 31 -4 5 -3
9 2 8 42 -7 97 60 89 108 -2 15 -5 31 -5 35 -2 19 -31 -7 -36 -33 -7 -33 -13
-38 -75 -60 -25 -9 -53 -20 -62 -24 -14 -6 -18 1 -24 44 -4 28 -10 54 -15 57
-4 2 -6 10 -3 17 2 7 -4 21 -14 30 -20 19 -76 27 -79 12 -1 -5 -12 -13 -25
-17 -16 -4 -10 -6 22 -7 73 -2 73 -16 0 -18 -88 -2 -136 -22 -154 -65 -40 -91
-40 -96 0 -134 32 -32 45 -52 24 -39 -13 8 -60 -5 -60 -17 0 -5 5 -6 12 -2 7
4 8 3 4 -4 -4 -7 -13 -12 -20 -12 -8 0 -12 16 -11 52 2 70 -12 96 -55 105 -19
4 -38 6 -42 5 -5 -1 -8 4 -8 12 0 11 -10 13 -42 8 -39 -5 -42 -4 -29 11 10 12
23 15 50 12 54 -8 66 4 47 50 -17 40 -13 60 10 51 12 -5 14 2 9 33 -5 33 -3
39 12 37 10 0 24 -7 31 -13 12 -12 35 -17 55 -14 4 1 7 -4 6 -11 -3 -25 1 -38
12 -38 5 0 7 5 4 10 -6 9 -2 12 28 14 6 1 15 8 19 16 4 10 7 6 7 -12 1 -21 6
-28 20 -28 15 0 18 5 14 23 -3 12 -10 28 -16 35 -6 8 -5 17 3 27 11 13 10 14
-2 10 -10 -4 -17 1 -21 16 -7 25 -1 39 14 39 6 0 8 -4 5 -8 -2 -4 -1 -14 3
-21 6 -8 10 -1 15 21 6 29 8 31 17 15 8 -14 14 -15 24 -7 15 12 12 17 -45 77
-14 14 -19 23 -12 19 6 -4 12 -4 12 1 0 14 -47 31 -62 22 -33 -22 -63 -9 -101
41 -20 27 -37 52 -37 56 0 4 -7 12 -15 18 -8 6 -28 36 -44 66 -19 37 -40 61
-62 72 -19 9 -37 17 -40 18 -4 0 -37 -22 -75 -50z m-338 -250 c-3 -26 -2 -39
4 -35 6 3 10 -1 10 -9 0 -9 -4 -16 -9 -16 -5 0 -7 -10 -4 -22 4 -19 3 -20 -6
-8 -14 20 -14 130 0 130 7 0 9 -14 5 -40z m744 -5 c0 -8 -14 -12 -39 -11 -41
1 -44 12 -7 25 25 10 46 4 46 -14z m-303 -27 c-3 -8 -6 -5 -6 6 -1 11 2 17 5
13 3 -3 4 -12 1 -19z m163 -32 c0 -5 -7 -3 -15 4 -8 7 -12 17 -9 22 7 10 24
-9 24 -26z m90 13 c0 -6 -4 -7 -10 -4 -5 3 -10 11 -10 16 0 6 5 7 10 4 6 -3
10 -11 10 -16z m-594 -38 c-7 -11 -46 -16 -46 -5 0 3 5 15 11 26 10 18 13 19
26 5 9 -8 12 -20 9 -26z m464 -43 c0 -10 -7 -18 -15 -18 -8 0 -15 8 -15 18 0
10 7 19 15 19 8 0 15 -9 15 -19z m104 -3 c3 -8 12 -15 21 -15 8 0 15 -4 15
-10 0 -5 -4 -10 -10 -10 -12 0 -50 32 -50 42 0 14 18 9 24 -7z m-584 -76 c0
-5 -4 -9 -10 -9 -5 0 -10 7 -10 16 0 8 5 12 10 9 6 -3 10 -10 10 -16z m173
-60 c-9 -9 -12 -7 -10 9 1 14 5 18 11 12 7 -7 6 -14 -1 -21z m-206 5 c-3 -3
-12 -4 -19 -1 -8 3 -5 6 6 6 11 1 17 -2 13 -5z m-186 -37 c-10 -9 -11 -8 -5 6
3 10 9 15 12 12 3 -3 0 -11 -7 -18z m62 3 c-3 -11 -9 -17 -14 -14 -14 8 -10
34 5 34 9 0 12 -7 9 -20z m-113 -11 c0 -5 -7 -9 -15 -9 -8 0 -15 7 -15 15 0 9
6 12 15 9 8 -4 15 -10 15 -15z m170 0 c0 -5 -7 -9 -15 -9 -15 0 -20 12 -9 23
8 8 24 -1 24 -14z m950 -35 c0 -40 -5 -42 -31 -11 -22 26 -24 44 -6 50 24 8
37 -6 37 -39z m-197 30 c12 -4 10 -10 -10 -30 -30 -30 -37 -27 -24 10 11 28
12 29 34 20z m-856 -26 c26 -24 29 -38 11 -38 -20 0 -35 13 -42 38 -9 28 1 28
31 0z m976 -8 c3 -11 4 -20 2 -20 -2 0 -10 -3 -19 -6 -11 -4 -16 -1 -16 10 0
11 -9 16 -30 16 -16 0 -30 5 -30 10 0 6 20 10 44 10 35 0 45 -4 49 -20z m-471
-73 c-21 -22 -32 -64 -14 -53 4 2 17 -8 27 -24 11 -16 27 -31 35 -34 10 -2 8
-4 -5 -5 -32 -2 -64 27 -71 63 -7 39 9 76 33 76 14 0 13 -4 -5 -23z m163 -7
c14 -5 25 -14 25 -20 0 -15 -21 -12 -44 7 -12 10 -15 11 -8 3 6 -8 12 -21 12
-29 0 -10 -6 -6 -13 9 -8 14 -19 24 -25 23 -6 -2 -26 4 -44 13 l-33 15 53 -6
c29 -3 64 -10 77 -15z m-115 -21 c0 -6 9 -8 23 -4 14 4 18 3 9 -3 -7 -5 -12
-13 -10 -18 4 -12 -12 -15 -34 -8 -22 7 -24 44 -3 44 8 0 15 -5 15 -11z m369
-26 c-8 -9 -16 -10 -22 -4 -13 13 0 31 19 24 11 -4 12 -8 3 -20z m-194 -83
c-4 -6 -11 -7 -17 -4 -7 5 -9 1 -5 -9 4 -12 2 -14 -10 -10 -12 5 -14 3 -8 -7
5 -9 4 -11 -3 -6 -7 4 -12 16 -12 27 0 15 7 19 31 19 18 0 28 -4 24 -10z"/>
<path d="M359 870 c-19 -16 -31 -29 -28 -30 3 0 16 9 28 19 13 11 28 22 34 24
7 2 9 7 6 10 -3 4 -21 -7 -40 -23z"/>
<path d="M770 820 c-8 -5 -10 -10 -5 -10 6 0 17 5 25 10 8 5 11 10 5 10 -5 0
-17 -5 -25 -10z"/>
<path d="M840 811 c0 -5 9 -7 20 -4 11 3 20 7 20 9 0 2 -9 4 -20 4 -11 0 -20
-4 -20 -9z"/>
<path d="M1415 770 c-3 -11 -11 -20 -16 -20 -5 0 -9 -4 -9 -10 0 -5 7 -7 15
-4 13 5 15 -7 15 -72 0 -42 3 -74 7 -71 3 4 14 0 24 -9 17 -15 18 -15 16 5 -1
12 -5 21 -10 21 -4 0 -5 6 -1 12 17 27 15 95 -2 112 -9 9 -14 20 -11 23 12 12
38 -8 48 -37 6 -16 15 -30 20 -30 5 0 9 -6 9 -14 0 -8 4 -16 10 -18 5 -1 11
-24 12 -50 2 -25 5 -44 7 -42 2 2 15 -8 28 -23 22 -23 26 -24 40 -10 16 15 9
42 -8 32 -5 -4 -9 1 -9 10 0 9 5 13 10 10 14 -9 12 17 -4 37 -15 21 -27 14
-19 -10 8 -22 -1 -13 -17 17 -9 18 -9 22 0 16 8 -5 11 -3 8 6 -3 8 -10 14 -16
14 -6 0 -17 6 -23 13 -10 10 -10 12 0 12 21 0 3 52 -27 77 -35 29 -88 31 -97
3z"/>
<path d="M253 748 c-13 -6 -23 -16 -23 -22 0 -6 -8 -19 -17 -28 -25 -24 -38
-40 -46 -60 -10 -28 8 -21 21 7 6 14 18 25 27 25 8 0 15 9 15 19 0 11 9 23 20
26 11 3 20 12 20 20 0 7 6 16 13 18 6 3 8 5 2 6 -5 0 -20 -5 -32 -11z"/>
<path d="M920 716 c-28 -13 -38 -36 -15 -36 8 0 15 4 15 8 0 5 10 13 22 19 12
5 18 12 12 15 -5 3 -20 0 -34 -6z"/>
<path d="M855 700 c-3 -5 -2 -10 4 -10 5 0 13 5 16 10 3 6 2 10 -4 10 -5 0
-13 -4 -16 -10z"/>
<path d="M862 655 c-11 -12 -10 -15 3 -15 8 0 15 7 15 15 0 18 -2 18 -18 0z"/>
<path d="M430 649 c0 -5 5 -7 10 -4 6 3 10 8 10 11 0 2 -4 4 -10 4 -5 0 -10
-5 -10 -11z"/>
<path d="M957 589 c-4 -16 -3 -18 9 -8 16 13 19 29 5 29 -5 0 -11 -9 -14 -21z"/>
<path d="M1120 560 c0 -5 5 -10 10 -10 6 0 10 5 10 10 0 6 -4 10 -10 10 -5 0
-10 -4 -10 -10z"/>
<path d="M1157 534 c3 -7 9 -14 14 -14 14 0 10 17 -5 23 -10 4 -13 1 -9 -9z"/>
<path d="M834 516 c-3 -8 -19 -20 -35 -26 -35 -15 -59 -50 -34 -50 9 0 34 9
55 20 30 16 40 26 40 45 0 27 -17 34 -26 11z"/>
<path d="M673 344 c-56 -33 -115 -100 -111 -126 4 -31 25 -33 32 -4 3 14 26
41 51 62 25 20 45 42 45 48 0 6 9 17 20 24 38 23 12 -41 -34 -83 -25 -23 -36
-65 -17 -65 5 0 23 13 41 30 18 16 36 27 41 24 5 -3 9 6 9 20 0 17 5 26 16 26
12 0 15 7 12 30 -4 23 -2 27 9 19 7 -6 11 -15 8 -19 -3 -5 -2 -11 3 -14 12 -7
11 26 -1 42 -15 19 -78 12 -124 -14z"/>
<path d="M1151 355 c1 -19 18 -51 18 -35 0 8 -4 22 -9 30 -5 8 -9 11 -9 5z"/>
</g>
</svg>
